<svg width="409" height="409" viewBox="0 0 409 409" fill="none" xmlns="http://www.w3.org/2000/svg">
<circle cx="204.5" cy="204.5" r="204.5" fill="#121111"/>
<path d="M169.368 272.27C167.868 273.17 166.428 273.44 165.048 273.08C163.728 272.78 162.588 271.91 161.628 270.47L132.648 223.67H102.228V266.33C102.228 270.11 100.338 272 96.5577 272C92.7777 272 90.8877 270.11 90.8877 266.33V159.68C90.8877 155.9 92.7777 154.01 96.5577 154.01H138.678C149.178 154.01 157.158 156.74 162.618 162.2C168.078 167.66 170.808 175.64 170.808 186.14V191.54C170.808 200.72 168.678 207.98 164.418 213.32C160.218 218.66 154.008 221.93 145.788 223.13L171.348 264.53C173.208 267.71 172.548 270.29 169.368 272.27ZM102.228 212.33H138.678C146.058 212.33 151.368 210.71 154.608 207.47C157.848 204.17 159.468 198.86 159.468 191.54V186.14C159.468 178.82 157.848 173.54 154.608 170.3C151.368 167 146.058 165.35 138.678 165.35H102.228V212.33ZM223.053 272C220.413 272 218.613 270.47 217.653 267.41L183.543 161.57C183.003 159.89 183.243 158.21 184.263 156.53C185.343 154.79 186.903 153.92 188.943 153.92C190.143 153.92 191.223 154.28 192.183 155C193.143 155.66 193.833 156.71 194.253 158.15L225.393 254.9H222.333L251.853 158.6C252.333 156.98 253.173 155.81 254.373 155.09C255.633 154.31 256.923 153.92 258.243 153.92C259.683 153.92 261.033 154.31 262.293 155.09C263.553 155.81 264.393 156.98 264.813 158.6L294.333 254.9H291.273L322.413 158.15C322.893 156.71 323.583 155.66 324.483 155C325.443 154.34 326.493 154.01 327.633 154.01C329.853 154.01 331.473 154.82 332.493 156.44C333.513 158 333.723 159.71 333.123 161.57L299.013 267.41C298.053 270.47 296.073 272 293.073 272H292.713C289.653 272 287.673 270.47 286.773 267.41L256.533 170.03H259.593L229.263 267.41C228.783 269.09 228.063 270.29 227.103 271.01C226.143 271.67 224.793 272 223.053 272Z" fill="#F7F5ED"/>
</svg>
